<?xml version="1.0" standalone="no"?>
<!DOCTYPE svg PUBLIC "-//W3C//DTD SVG 20010904//EN"
 "http://www.w3.org/TR/2001/REC-SVG-20010904/DTD/svg10.dtd">
<svg version="1.0" xmlns="http://www.w3.org/2000/svg"
 width="512.000000pt" height="512.000000pt" viewBox="0 0 512.000000 512.000000"
 preserveAspectRatio="xMidYMid meet">
<metadata>
Created by potrace 1.11, written by Peter Selinger 2001-2013
</metadata>
<g transform="translate(0.000000,512.000000) scale(0.100000,-0.100000)"
fill="#000000" stroke="none">
<path d="M2530 4786 c-64 -21 -92 -96 -56 -151 25 -38 51 -46 149 -50 98 -4
206 -13 247 -20 14 -2 43 -7 65 -10 233 -33 494 -121 722 -241 117 -62 339
-207 373 -244 3 -3 21 -18 40 -34 19 -15 57 -49 84 -75 27 -25 63 -56 80 -68
75 -57 175 2 162 95 -5 29 -20 50 -74 102 -196 187 -415 339 -662 457 -220
106 -511 194 -725 219 -27 3 -56 7 -63 10 -15 5 -134 14 -238 18 -39 2 -86 -2
-104 -8z"/>
<path d="M2497 4145 c-1 -1 -45 -5 -97 -9 -106 -7 -219 -26 -330 -56 -25 -7
-52 -13 -60 -15 -34 -7 -219 -80 -285 -112 -197 -99 -354 -211 -510 -368 -174
-173 -294 -344 -389 -553 -43 -95 -120 -302 -111 -302 2 0 -2 -18 -10 -40 -8
-22 -14 -43 -14 -45 1 -5 -9 -69 -17 -110 -11 -58 -18 -151 -19 -242 0 -94 2
-103 24 -127 60 -64 161 -30 176 57 2 12 6 63 9 112 3 50 8 105 10 123 3 18 8
52 11 75 3 23 12 65 20 92 8 28 16 61 19 75 7 38 59 176 96 255 249 536 773
910 1360 970 25 2 83 7 129 10 94 5 126 20 146 67 16 39 5 83 -29 116 -18 19
-36 25 -75 26 -28 1 -52 2 -54 1z"/>
<path d="M2512 3467 c-60 -34 -73 -113 -26 -160 27 -27 52 -33 179 -42 89 -7
232 -45 321 -85 82 -38 209 -122 279 -185 60 -54 104 -66 151 -40 40 21 59 63
50 109 -5 26 -24 51 -74 96 -121 111 -274 200 -439 256 -155 52 -390 79 -441
51z"/>
<path d="M2435 2785 c-218 -52 -396 -236 -431 -445 -41 -249 82 -498 301 -606
97 -48 172 -64 280 -60 147 6 270 60 375 167 220 222 219 571 -3 791 -73 73
-189 137 -280 156 -65 13 -181 12 -242 -3z m270 -228 c274 -127 279 -506 7
-639 -60 -30 -75 -33 -152 -33 -70 0 -95 5 -141 27 -281 130 -284 514 -5 644
62 28 79 32 150 30 65 -1 93 -7 141 -29z"/>
<path d="M65 2331 c-11 -5 -29 -19 -40 -31 -18 -19 -20 -36 -19 -134 3 -592
240 -1186 661 -1654 37 -40 79 -82 95 -93 101 -72 214 50 137 149 -9 12 -46
53 -81 91 -255 274 -453 647 -541 1021 -22 93 -31 143 -52 280 -2 19 -8 94
-11 165 -8 165 -25 201 -96 210 -18 3 -42 1 -53 -4z"/>
<path d="M1367 2323 c-36 -19 -58 -72 -52 -130 2 -26 7 -75 10 -108 12 -128
61 -291 124 -410 54 -103 69 -127 130 -205 197 -250 458 -405 781 -466 19 -3
103 -7 185 -9 179 -3 314 20 465 79 216 86 460 269 460 347 0 37 -23 84 -47
94 -61 27 -95 18 -158 -40 -146 -133 -361 -238 -540 -263 -65 -9 -289 -8 -340
1 -484 91 -835 489 -859 976 -4 79 -21 116 -60 135 -37 17 -65 17 -99 -1z"/>
<path d="M4318 2325 c-43 -24 -55 -60 -62 -176 -18 -356 -136 -672 -355 -956
-82 -107 -213 -239 -296 -298 -15 -11 -39 -30 -54 -41 -48 -39 -165 -107 -266
-154 -220 -104 -400 -148 -675 -165 -94 -5 -126 -21 -146 -71 -16 -38 1 -90
38 -117 23 -18 41 -20 120 -19 51 1 111 4 133 7 324 43 562 124 804 274 229
142 459 363 592 571 62 96 77 123 125 220 114 233 176 478 190 751 l6 117 -29
31 c-34 38 -85 49 -125 26z"/>
<path d="M4952 2314 c-34 -27 -37 -40 -47 -204 -21 -378 -120 -716 -304 -1043
-70 -124 -212 -318 -307 -417 -97 -101 -112 -133 -93 -188 19 -54 93 -82 145
-54 18 9 78 71 159 163 145 162 314 434 408 654 70 164 149 430 171 580 22
143 30 236 31 362 0 107 -1 114 -25 138 -37 37 -97 41 -138 9z"/>
</g>
</svg>
